<?xml version="1.0" encoding="UTF-8"?>
<svg version="1.1" xmlns="http://www.w3.org/2000/svg" width="1536" height="1024">
<path d="M0 0 C506.88 0 1013.76 0 1536 0 C1536 337.92 1536 675.84 1536 1024 C1029.12 1024 522.24 1024 0 1024 C0 686.08 0 348.16 0 0 Z " fill="#FEFEFE" transform="translate(0,0)"/>
<path d="M0 0 C1.11955078 0.48146484 1.11955078 0.48146484 2.26171875 0.97265625 C13.46910385 6.73380793 26.27207398 19.00978437 31.2109375 30.671875 C34.08147189 42.77927746 33.10135201 55.50637369 26.65258789 66.2434082 C21.60393447 73.73513744 15.44543796 79.86613017 9 86.125 C7.40463385 87.68488116 5.81163046 89.24707263 4.22143555 90.81222534 C2.78094469 92.22844245 1.33404769 93.63813522 -0.11328125 95.04736328 C-2.23797075 97.16792292 -4.20872943 99.37783026 -6.16040039 101.65820312 C-10.39367337 106.54517449 -14.97496253 111.07245221 -19.57018852 115.61478806 C-21.1594367 117.18635383 -22.74486656 118.76168541 -24.32936096 120.33804321 C-28.829575 124.81406057 -33.33546626 129.28432938 -37.84594727 133.75 C-40.6205501 136.49756032 -43.3900468 139.25018667 -46.15663338 142.00581741 C-47.20032194 143.04337286 -48.24589318 144.0790386 -49.29351616 145.11262131 C-62.40145925 158.04639718 -72.28185846 169.36434113 -72.48828125 188.4609375 C-72.47508072 191.76732082 -72.39766874 195.06981007 -72.3125 198.375 C-72.28734884 200.09371702 -72.26454787 201.8124701 -72.24414062 203.53125 C-72.18976904 207.6884122 -72.1038892 211.84379267 -72 216 C-68.27964651 212.30458443 -64.56275774 208.60572918 -60.84887695 204.90380859 C-59.58807785 203.6480018 -58.32637824 202.39309836 -57.0637207 201.13916016 C-55.23664858 199.32437938 -53.41296716 197.50624663 -51.58984375 195.6875 C-51.03538071 195.13819824 -50.48091766 194.58889648 -49.90965271 194.02294922 C-47.0303315 191.14403073 -44.27924076 188.20439184 -41.62133789 185.11914062 C-37.77191802 180.6723494 -33.64898448 176.54030891 -29.46875 172.40625 C-28.67400269 171.61528931 -27.87925537 170.82432861 -27.0604248 170.00939941 C-23.69464452 166.65981427 -20.32288952 163.3162673 -16.95166016 159.97216797 C-14.47609773 157.51479061 -12.00361917 155.05433942 -9.53125 152.59375 C-8.78000854 151.85080688 -8.02876709 151.10786377 -7.25476074 150.34240723 C-3.16545895 146.27192793 0.73458791 142.10527682 4.50018311 137.73358154 C7.47195872 134.29861866 10.67721789 131.09761926 13.875 127.875 C14.85919922 126.85986328 14.85919922 126.85986328 15.86328125 125.82421875 C24.1721334 117.45058023 31.97212353 112.21921536 43.875 111.625 C56.52789555 111.8975239 65.84586896 120.22581038 74.16015625 128.8671875 C77.90566234 132.91208967 80.72421968 136.96332005 83 142 C83.48339844 143.05445313 83.96679688 144.10890625 84.46484375 145.1953125 C91.29688669 163.02297025 90.65673908 186.38663613 83.17041016 203.94580078 C79.13184221 212.89194018 73.98630691 220.09563774 67 227 C65.48259461 228.51775112 63.96572023 230.03603321 62.44921875 231.5546875 C59.94522724 234.06086378 57.43797133 236.56293478 54.91479492 239.04980469 C53.731073 240.2201123 53.731073 240.2201123 52.5234375 241.4140625 C51.470354 242.44974365 51.470354 242.44974365 50.39599609 243.50634766 C48.43041045 245.55204684 46.56847304 247.63000253 44.71435547 249.7746582 C40.97997421 254.07236932 37.05054388 258.14518033 33.046875 262.19140625 C31.9355722 263.31481667 31.9355722 263.31481667 30.80181885 264.46092224 C29.24353493 266.03294199 27.6837601 267.60348514 26.12255859 269.17260742 C24.54350604 270.76319658 22.96893396 272.35824652 21.39892578 273.95776367 C5.80743896 289.84136648 -9.9513957 302.60726468 -33.3125 303.4375 C-43.93489578 303.12135727 -53.66613372 299.93813377 -63.1875 295.4375 C-63.79182861 295.16421875 -64.39615723 294.8909375 -65.01879883 294.609375 C-77.69238824 288.2211986 -88.1755432 275.01274647 -98.14453125 265.09375 C-99.19059319 264.05380135 -99.19059319 264.05380135 -100.2577877 262.99284363 C-103.93868414 259.33261302 -107.61643505 255.66925457 -111.29174805 252.00341797 C-115.0599205 248.24635896 -118.8396471 244.5011457 -122.62198353 240.75835419 C-125.55852892 237.84805922 -128.48605264 234.92881198 -131.41129112 232.00715637 C-132.80042666 230.6228531 -134.19290301 229.24189302 -135.58893776 227.86454773 C-153.33207576 210.34457854 -163.90145903 190.91972448 -165.16796875 165.6484375 C-165.36866882 132.01110567 -149.97630524 109.30444961 -127.21524048 86.1211853 C-122.8350286 81.69135356 -118.42786242 77.28853723 -114.01953125 72.88671875 C-112.39517405 71.26168623 -110.77096518 69.63650543 -109.14689636 68.01118469 C-105.76402019 64.626844 -102.37936698 61.24429365 -98.9934082 57.86303711 C-94.66958823 53.54493202 -90.35029901 49.22232714 -86.03232288 44.89837933 C-82.68743483 41.54986751 -79.34015615 38.20375359 -75.9921627 34.85834694 C-74.39873717 33.2655847 -72.80604363 31.67208977 -71.21412086 30.07782555 C-68.98737157 27.84851774 -66.75740941 25.62247217 -64.52661133 23.3972168 C-63.88070038 22.74928162 -63.23478943 22.10134644 -62.56930542 21.43377686 C-58.75713168 17.63900448 -54.83080129 14.03073716 -50.75394726 10.52143574 C-49.22304812 9.19347981 -47.73267878 7.81908704 -46.25 6.4375 C-33.76103778 -3.94696859 -14.87349736 -6.69437622 0 0 Z " fill="#1DA39E" transform="translate(306,340)"/>
<path d="M0 0 C9.9 0 19.8 0 30 0 C31.99160156 3.89232422 31.99160156 3.89232422 34.0234375 7.86328125 C35.3472368 10.4486179 36.67140491 13.03376534 37.99560547 15.61889648 C38.89768131 17.38041909 39.79938924 19.14213016 40.70068359 20.90405273 C45.87921361 31.02677705 51.09830351 41.12557862 56.40655518 51.18093872 C60.3547608 58.66152728 64.24605949 66.17082212 68.125 73.6875 C68.80201697 74.99808116 69.47910029 76.30862805 70.15625 77.61914062 C71.77158924 80.74570377 73.38606246 83.87271301 75 87 C77.94757926 83.41540234 79.95153904 79.41084723 82.02734375 75.2890625 C82.60489159 74.15488136 82.60489159 74.15488136 83.19410706 72.99778748 C84.01776434 71.38022772 84.83989836 69.76189158 85.66064453 68.14285278 C91.89954088 55.8402681 98.20820844 43.59897021 104.90161133 31.53662109 C109.00747139 24.09653084 112.80417218 16.51425167 116.52539062 8.87524414 C117.16637695 7.56801392 117.16637695 7.56801392 117.8203125 6.234375 C118.19430176 5.46319336 118.56829102 4.69201172 118.95361328 3.89746094 C120 2 120 2 122 0 C131.57 0 141.14 0 151 0 C151 49.83 151 99.66 151 151 C142.42 151 133.84 151 125 151 C124.67 116.68 124.34 82.36 124 47 C121.36 52.28 118.72 57.56 116 63 C114.34268054 66.26735643 112.68265298 69.53264462 111.01171875 72.79296875 C110.58604614 73.62480682 110.16037354 74.4566449 109.72180176 75.31369019 C108.3779716 77.93877469 107.03285697 80.56319771 105.6875 83.1875 C105.22799957 84.08443573 104.76849915 84.98137146 104.29507446 85.90548706 C97.59933529 98.97367656 90.86745087 112.02100034 84 125 C78.39 125 72.78 125 67 125 C59.54804928 111.00442345 52.37868767 96.88119971 45.3125 82.6875 C44.30943687 80.67633648 43.30618229 78.66526844 42.30273438 76.65429688 C40.44974839 72.94028351 38.59792883 69.22569363 36.74731445 65.51049805 C33.50359035 59.00431331 30.25122088 52.50244175 27 46 C26.67 80.65 26.34 115.3 26 151 C17.42 151 8.84 151 0 151 C0 101.17 0 51.34 0 0 Z " fill="#1C324D" transform="translate(928,415)"/>
<path d="M0 0 C0.92304932 0.00749268 1.84609863 0.01498535 2.79711914 0.02270508 C21.63802745 0.32044699 38.37846882 6.33652097 52.25 19.3125 C58.93695071 26.23895468 64.70018776 34.99776907 67.5625 44.25 C67.2325 45.57 66.9025 46.89 66.5625 48.25 C58.3125 49.9 50.0625 51.55 41.5625 53.25 C40.5725 51.27 39.5825 49.29 38.5625 47.25 C32.54243832 35.84386661 24.87831776 30.20986734 12.875 25.9375 C0.36460618 23.33432714 -11.87388223 25.15327842 -22.8125 31.6875 C-24.03239234 32.52507556 -25.24182134 33.37820721 -26.4375 34.25 C-27.448125 34.95125 -28.45875 35.6525 -29.5 36.375 C-38.12395202 43.8945222 -43.01129143 56.1202415 -44.4375 67.25 C-45.53958191 83.64538174 -44.5059218 99.61462475 -34.4375 113.25 C-33.98632812 113.89324219 -33.53515625 114.53648437 -33.0703125 115.19921875 C-26.91957343 123.20907951 -18.00369087 126.91719205 -8.4375 129.25 C-7.79554688 129.43433594 -7.15359375 129.61867188 -6.4921875 129.80859375 C4.07869964 132.07952578 15.53997288 129.74548782 24.875 124.5625 C32.84652596 119.36757297 37.18146042 113.01888225 40.5625 104.25 C43.39758715 104.84670104 46.23035289 105.45212347 49.0625 106.0625 C49.85398437 106.22814453 50.64546875 106.39378906 51.4609375 106.56445312 C56.71616205 107.70595682 61.56859042 109.25129078 66.5625 111.25 C64.58170022 124.05610092 54.57856554 135.37748015 44.7109375 143.109375 C26.84753719 155.25471417 5.61908284 157.87141166 -15.51953125 154.74609375 C-18.59426474 154.09545486 -21.47214031 153.28598846 -24.4375 152.25 C-25.91283203 151.75693359 -25.91283203 151.75693359 -27.41796875 151.25390625 C-45.82562901 144.37187027 -58.13889346 131.34136907 -67.015625 114.203125 C-76.55729446 92.93554849 -76.41366544 66.86914501 -68.3046875 45.2265625 C-60.64158487 27.10916092 -47.73246624 13.91773169 -30.00390625 5.6484375 C-20.0928426 1.6559949 -10.66243805 -0.11490331 0 0 Z " fill="#1B314C" transform="translate(534.4375,412.75)"/>
<path d="M0 0 C6.88876391 5.5688999 11.78775605 13.5441051 13.44921875 22.31640625 C13.53838672 24.92507577 13.57552507 27.5060891 13.56274414 30.11425781 C13.56289017 30.89512756 13.56303619 31.67599731 13.56318665 32.48052979 C13.56249117 35.05605874 13.55471587 37.63151496 13.546875 40.20703125 C13.54500952 41.99493368 13.54358623 43.78283662 13.54258728 45.57073975 C13.53877232 50.27251603 13.52895073 54.97426133 13.5178833 59.67602539 C13.50764724 64.47541891 13.50308495 69.27481745 13.49804688 74.07421875 C13.48732756 83.48829704 13.46973901 92.90234422 13.44921875 102.31640625 C5.52921875 102.31640625 -2.39078125 102.31640625 -10.55078125 102.31640625 C-10.88078125 98.68640625 -11.21078125 95.05640625 -11.55078125 91.31640625 C-12.49953125 92.20328125 -13.44828125 93.09015625 -14.42578125 94.00390625 C-26.04308821 103.91140795 -38.89888422 105.02270282 -53.55078125 104.31640625 C-62.15035956 103.43788818 -70.3524593 99.34255259 -76.55078125 93.31640625 C-83.577716 83.79009529 -84.99796729 73.89103455 -83.55078125 62.31640625 C-80.86491737 53.98134932 -74.06085432 47.5564106 -66.55078125 43.31640625 C-49.58365778 35.79275823 -30.66830792 37.0468002 -12.55078125 37.31640625 C-12.68597524 29.25392818 -12.8534706 22.43462639 -18.55078125 16.31640625 C-24.09346648 11.38957494 -30.60474401 11.54483535 -37.72265625 11.87109375 C-43.80171596 12.57824967 -47.14832453 14.54387413 -51.09765625 19.1015625 C-53.09129083 21.73920825 -54.50400843 24.17608778 -55.55078125 27.31640625 C-63.80078125 26.65640625 -72.05078125 25.99640625 -80.55078125 25.31640625 C-79.10952916 15.2276416 -75.59054738 7.73245491 -67.55078125 1.31640625 C-48.72724851 -12.68317455 -19.54168572 -12.8981111 0 0 Z " fill="#1C314B" transform="translate(889.55078125,463.68359375)"/>
<path d="M0 0 C10.31916289 8.15771661 15.7117827 20.93793427 18.109375 33.55859375 C18.796875 39.55859375 18.796875 39.55859375 18.796875 52.55859375 C-8.263125 52.55859375 -35.323125 52.55859375 -63.203125 52.55859375 C-59.0862559 67.84919577 -59.0862559 67.84919577 -48.2265625 77.59375 C-40.22493018 81.40920016 -30.99404118 81.88991455 -22.453125 79.49609375 C-16.43538621 77.20518773 -11.73805635 72.86099078 -8.203125 67.55859375 C-0.17542311 68.11222836 7.13541567 70.21547319 14.796875 72.55859375 C11.45098174 83.54557349 3.07078013 91.93605428 -6.953125 97.37109375 C-21.6078009 104.0037911 -40.14531483 105.36938617 -55.375 99.82421875 C-59.9418804 97.78047669 -64.11028825 95.43444541 -68.203125 92.55859375 C-68.83863281 92.11902344 -69.47414063 91.67945313 -70.12890625 91.2265625 C-79.77488908 83.80493048 -86.1843536 70.40707267 -88.203125 58.55859375 C-89.20875772 45.60432608 -89.93943885 31.50782914 -84.203125 19.55859375 C-83.47416016 18.01558594 -83.47416016 18.01558594 -82.73046875 16.44140625 C-75.61679725 2.95401961 -64.33755275 -4.59965833 -50.078125 -9.31640625 C-32.44057364 -13.64259809 -14.96962026 -9.79395368 0 0 Z " fill="#1B304B" transform="translate(1186.203125,465.44140625)"/>
<path d="M0 0 C11.64416473 7.59171226 18.59653671 18.44195389 22.9453125 31.48828125 C24.0703125 37.42578125 24.0703125 37.42578125 24.0703125 56.42578125 C-2.6596875 56.42578125 -29.3896875 56.42578125 -56.9296875 56.42578125 C-52.21736463 72.21808091 -52.21736463 72.21808091 -40.7421875 81.86328125 C-32.55099505 85.58351733 -23.53364344 85.61486274 -15.0546875 82.73828125 C-9.0267271 80.27664663 -4.71817216 77.49105664 -1.9296875 71.42578125 C6.38648062 72.009372 14.08490576 74.16377539 22.0703125 76.42578125 C19.2043705 86.34856536 11.75726138 94.06312934 3.0703125 99.42578125 C-11.90774952 107.04655435 -29.84804001 109.28931666 -46.125 104.46484375 C-58.99517264 99.69678536 -67.99142345 93.31403069 -74.9296875 81.42578125 C-75.30996094 80.78898438 -75.69023438 80.1521875 -76.08203125 79.49609375 C-81.27814045 70.0450574 -82.47163439 59.60978998 -82.3671875 48.98828125 C-82.35888916 47.89298096 -82.35059082 46.79768066 -82.34204102 45.66918945 C-82.04053221 31.24290507 -77.6438084 18.33412825 -67.6171875 7.55078125 C-49.39087131 -9.13299593 -21.45564528 -11.5288334 0 0 Z " fill="#1B304B" transform="translate(1301.9296875,461.57421875)"/>
<path d="M0 0 C8.25 0 16.5 0 25 0 C25.0093457 2.06290283 25.01869141 4.12580566 25.02832031 6.2512207 C25.0622476 13.10454717 25.11788276 19.9575775 25.18390274 26.81066608 C25.22323486 30.96143881 25.25549259 35.11200391 25.27099609 39.26293945 C25.28625762 43.27677202 25.32086829 47.29003326 25.36830902 51.30360985 C25.38302579 52.826774 25.39103538 54.35001977 25.39188385 55.87325478 C25.36597965 70.85670168 25.36597965 70.85670168 32.4375 83.5625 C39.90053093 87.74907833 48.13381066 88.54276161 56.48046875 86.34765625 C61.3434564 84.15601965 65.28358979 80.59367459 68 76 C69.60152998 71.17434278 70.26298396 66.94562341 70.31884766 61.87133789 C70.32889328 61.19731934 70.3389389 60.52330078 70.34928894 59.82885742 C70.37989249 57.62679813 70.39709154 55.42485908 70.4140625 53.22265625 C70.4327926 51.6856535 70.45236737 50.14866083 70.4727478 48.61167908 C70.52388063 44.58570321 70.56360663 40.55969408 70.60089111 36.53356934 C70.64104958 32.41747943 70.69208764 28.30152566 70.7421875 24.18554688 C70.8387234 16.12378446 70.92219219 8.06196494 71 0 C79.58 0 88.16 0 97 0 C97 35.97 97 71.94 97 109 C88.42 109 79.84 109 71 109 C70.67 105.04 70.34 101.08 70 97 C68.7625 98.216875 67.525 99.43375 66.25 100.6875 C57.77629225 108.0610664 49.88467842 110.41838438 38.8125 110.5 C37.98129639 110.50644531 37.15009277 110.51289062 36.29370117 110.51953125 C25.92249738 110.30558596 16.53575345 106.72027857 9.2421875 99.18359375 C2.65657923 90.9929503 -0.16494125 81.65251295 -0.11352539 71.29394531 C-0.11374443 70.13727104 -0.11374443 70.13727104 -0.1139679 68.95722961 C-0.11327249 66.4141659 -0.10549749 63.87117588 -0.09765625 61.328125 C-0.09579075 59.56264282 -0.09436747 57.79716013 -0.09336853 56.03167725 C-0.08955375 51.38908454 -0.07973232 46.7465232 -0.06866455 42.10394287 C-0.0584281 37.36487248 -0.05386612 32.62579701 -0.04882812 27.88671875 C-0.03810913 18.59112984 -0.02052072 9.29557244 0 0 Z " fill="#1C314B" transform="translate(618,457)"/>
<path d="M0 0 C8.91 0 17.82 0 27 0 C27 9.57 27 19.14 27 29 C35.58 29 44.16 29 53 29 C53 36.26 53 43.52 53 51 C44.42 51 35.84 51 27 51 C27.07397071 58.88425726 27.15678124 66.76737431 27.26245117 74.65112305 C27.29735011 77.33306601 27.3249887 80.01493801 27.34643555 82.69702148 C27.37997146 86.55222433 27.43228927 90.40678475 27.48828125 94.26171875 C27.49467117 95.46084396 27.5010611 96.65996918 27.50764465 97.89543152 C27.53733589 99.5766082 27.53733589 99.5766082 27.56762695 101.29174805 C27.58428154 102.76734444 27.58428154 102.76734444 27.60127258 104.27275085 C28.19623373 108.34221588 29.91075059 111.01616182 32.9375 113.75 C38.88887697 117.35689513 46.32287785 116.06182521 53 116 C53 123.26 53 130.52 53 138 C38.23240428 141.06859132 25.28076021 141.19560093 12.22265625 132.7109375 C4.66175938 126.89077436 2.0720173 119.08573606 0 110 C-0.47925901 105.25975775 -0.47095449 100.58464252 -0.390625 95.82421875 C-0.38496521 94.53304642 -0.37930542 93.24187408 -0.37347412 91.91157532 C-0.3584105 88.52645208 -0.31930413 85.14204713 -0.2746582 81.75720215 C-0.2332812 78.28419708 -0.21537388 74.81107264 -0.1953125 71.33789062 C-0.15278362 64.55827409 -0.08260012 57.77924577 0 51 C-5.94 51 -11.88 51 -18 51 C-18 43.74 -18 36.48 -18 29 C-12.06 29 -6.12 29 0 29 C0 19.43 0 9.86 0 0 Z " fill="#1F344F" transform="translate(1353,428)"/>
<path d="M0 0 C0 8.58 0 17.16 0 26 C-1.65 25.67 -3.3 25.34 -5 25 C-13.19546828 24.20947253 -19.93749415 24.22559316 -26.87109375 29.01171875 C-31.76069045 33.57833292 -35.77873854 40.04458592 -36.15821838 46.82841492 C-36.17376266 47.9764711 -36.18930695 49.12452728 -36.20532227 50.30737305 C-36.22526749 51.60849533 -36.24521271 52.90961761 -36.26576233 54.25016785 C-36.28274546 55.6706836 -36.29962431 57.0912006 -36.31640625 58.51171875 C-36.33698137 59.96475306 -36.35797799 61.41778146 -36.37937927 62.87080383 C-36.43454234 66.6929953 -36.48397698 70.51524026 -36.53222656 74.33752441 C-36.58248372 78.23873652 -36.63814778 82.13987105 -36.69335938 86.04101562 C-36.80087044 93.69394652 -36.90183127 101.34694252 -37 109 C-45.58 109 -54.16 109 -63 109 C-63 73.03 -63 37.06 -63 0 C-54.42 0 -45.84 0 -37 0 C-37 5.28 -37 10.56 -37 16 C-36.154375 14.63875 -35.30875 13.2775 -34.4375 11.875 C-25.95001346 -0.79645879 -14.56410223 -4.85470074 0 0 Z " fill="#1C314C" transform="translate(800,457)"/>
<path d="M0 0 C1.35610486 0.01508044 2.71222602 0.02876288 4.06835938 0.04101562 C7.35849602 0.07614164 10.64778183 0.1253336 13.9375 0.1875 C14.17600388 8.76446645 12.62241614 16.2051341 7.1875 23.125 C2.03585278 28.5635744 -4.39176173 30.83396523 -11.74609375 31.390625 C-17.26114709 31.48449825 -21.41567378 31.50666159 -26.0625 28.1875 C-29.85029849 24.41002248 -31.9096016 21.25162843 -32.3125 15.8125 C-31.96749391 10.80991176 -30.42643939 8.55143939 -26.9375 5.0625 C-18.47870409 -0.45410603 -9.8423443 -0.18918257 0 0 Z " fill="#FBFBFC" transform="translate(864.0625,517.8125)"/>
<path d="M0 0 C1.06444336 0.0146228 1.06444336 0.0146228 2.15039062 0.02954102 C10.61438274 0.31667046 14.68539228 2.68665248 20.4375 8.6875 C25.17146147 14.34221233 27.125 18.93063513 27.125 26.4375 C8.975 26.4375 -9.175 26.4375 -27.875 26.4375 C-25.56588446 16.04648007 -22.74276221 9.48613458 -13.875 3.4375 C-9.2431145 0.65439283 -5.32531411 -0.08124001 0 0 Z " fill="#FCFCFC" transform="translate(1150.875,474.5625)"/>
<path d="M0 0 C6.53668562 5.25193747 11.27078621 11.07527767 12.80859375 19.453125 C12.80859375 20.773125 12.80859375 22.093125 12.80859375 23.453125 C-5.34140625 23.453125 -23.49140625 23.453125 -42.19140625 23.453125 C-39.8879518 13.08757998 -37.0815552 6.44837251 -28.19140625 0.453125 C-20.32465822 -4.24211876 -7.8922494 -4.82021254 0 0 Z " fill="#FCFDFD" transform="translate(1287.19140625,477.546875)"/>
<path d="M0 0 C9.9 0 19.8 0 30 0 C32.475 4.95 32.475 4.95 35 10 C34.67 10.66 34.34 11.32 34 12 C33.16151196 10.54462432 32.32936066 9.08559627 31.5 7.625 C30.80390625 6.40683594 30.80390625 6.40683594 30.09375 5.1640625 C29 3 29 3 29 1 C20.09 1 11.18 1 2 1 C2 49.84 2 98.68 2 149 C9.59 149 17.18 149 25 149 C25 114.68 25 80.36 25 45 C25.33 45 25.66 45 26 45 C26 79.98 26 114.96 26 151 C17.42 151 8.84 151 0 151 C0 101.17 0 51.34 0 0 Z " fill="#212C3F" transform="translate(928,415)"/>
<path d="M0 0 C0.05383848 2.45862401 0.09359038 4.9160755 0.125 7.375 C0.14175781 8.07367188 0.15851562 8.77234375 0.17578125 9.4921875 C0.19344267 11.32897486 0.10303261 13.16601963 0 15 C-0.66 15.66 -1.32 16.32 -2 17 C-3.07671142 11.75103182 -3 7.60877798 -3 2 C-9.6 2 -16.2 2 -23 2 C-23 9.92 -23 17.84 -23 26 C-23.33 26 -23.66 26 -24 26 C-24 17.75 -24 9.5 -24 1 C-20.225625 0.835 -16.45125 0.67 -12.5625 0.5 C-11.37084229 0.44779297 -10.17918457 0.39558594 -8.95141602 0.34179688 C-7.55427368 0.28088867 -7.55427368 0.28088867 -6.12890625 0.21875 C-5.17056885 0.17685547 -4.21223145 0.13496094 -3.22485352 0.09179688 C-1 0 -1 0 0 0 Z " fill="#2A3C55" transform="translate(763,457)"/>
<path d="M0 0 C0.33 0.99 0.66 1.98 1 3 C-0.32 3.99 -1.64 4.98 -3 6 C-2.67 6.99 -2.34 7.98 -2 9 C-2.61875 9.2475 -3.2375 9.495 -3.875 9.75 C-6.42503925 11.25002309 -6.76222348 12.3697249 -8 15 C-8.92039063 15.86238281 -8.92039063 15.86238281 -9.859375 16.7421875 C-12.3594318 19.37910872 -13.68523289 21.97821422 -15.25 25.25 C-15.77078125 26.32765625 -16.2915625 27.4053125 -16.828125 28.515625 C-17.21484375 29.33546875 -17.6015625 30.1553125 -18 31 C-19 28 -19 28 -17.62890625 24.77734375 C-16.95382887 23.49010426 -16.26409074 22.21048288 -15.5625 20.9375 C-15.0197644 19.93638184 -15.0197644 19.93638184 -14.46606445 18.91503906 C-10.54428907 11.87634607 -5.78168059 5.62157251 0 0 Z " fill="#18948F" transform="translate(167,439)"/>
<path d="M0 0 C8.01661703 0.36439168 15.56734659 3.87547453 21.48046875 9.2578125 C27.40456927 15.79698357 27.40456927 15.79698357 29 20 C28.67 20.99 28.34 21.98 28 23 C27.67128906 22.35933594 27.34257813 21.71867187 27.00390625 21.05859375 C22.09729271 12.1362694 15.69224877 6.29170713 6 3 C4.01178687 2.60235737 2.01267638 2.24544834 0 2 C0 1.34 0 0.68 0 0 Z " fill="#142036" transform="translate(871,457)"/>
<path d="M0 0 C0 6.93 0 13.86 0 21 C-0.66 21 -1.32 21 -2 21 C-2 14.73 -2 8.46 -2 2 C-5.96 2 -9.92 2 -14 2 C-14 1.67 -14 1.34 -14 1 C-12.04175306 0.83232136 -10.08339945 0.66588795 -8.125 0.5 C-6.48917969 0.36078125 -6.48917969 0.36078125 -4.8203125 0.21875 C-3.21670436 0.09437042 -1.60842449 0 0 0 Z " fill="#0F1E36" transform="translate(1406,544)"/>
<path d="M0 0 C0.33 0.99 0.66 1.98 1 3 C0.17822266 3.71349609 0.17822266 3.71349609 -0.66015625 4.44140625 C-8.7863888 11.61627499 -16.38728285 19.2881192 -24 27 C-24 24 -24 24 -21.796875 21.45629883 C-20.78891569 20.44881485 -19.77269078 19.44955807 -18.75 18.45703125 C-18.21729492 17.92857101 -17.68458984 17.40011078 -17.13574219 16.8556366 C-15.43072971 15.16743265 -13.71558873 13.48994855 -12 11.8125 C-10.84306822 10.67061222 -9.68680935 9.52804224 -8.53125 8.38476562 C-5.69525089 5.58186459 -2.85012324 2.7885348 0 0 Z " fill="#18938C" transform="translate(294,495)"/>
<path d="M0 0 C0.66 0.33 1.32 0.66 2 1 C1.44570313 1.51949219 0.89140625 2.03898437 0.3203125 2.57421875 C-0.76636719 3.62029297 -0.76636719 3.62029297 -1.875 4.6875 C-2.59429687 5.37199219 -3.31359375 6.05648438 -4.0546875 6.76171875 C-6.09489898 9.109191 -6.96388861 11.09501479 -8 14 C-9.5 15.8125 -9.5 15.8125 -11 17 C-11.66 17 -12.32 17 -13 17 C-13.66 18.98 -14.32 20.96 -15 23 C-16 20 -16 20 -14.8828125 17.6171875 C-10.587803 10.91697269 -5.86059384 5.38217802 0 0 Z " fill="#122039" transform="translate(486,430)"/>
<path d="M0 0 C1.26714844 -0.01417969 2.53429688 -0.02835938 3.83984375 -0.04296875 C7.0625 0.1875 7.0625 0.1875 9.0625 2.1875 C5.81044841 3.15078543 2.82364248 3.35218233 -0.5625 3.375 C-2.00496094 3.39626953 -2.00496094 3.39626953 -3.4765625 3.41796875 C-5.9375 3.1875 -5.9375 3.1875 -7.9375 1.1875 C-6.00408053 -0.74591947 -2.56270879 0.01300867 0 0 Z " fill="#2B394E" transform="translate(1389.9375,564.8125)"/>
<path d="M0 0 C0.763125 0.20625 1.52625 0.4125 2.3125 0.625 C-0.84059659 3.26904244 -3.85597356 4.5818165 -7.75 5.875 C-8.79285156 6.23078125 -9.83570313 6.5865625 -10.91015625 6.953125 C-13.6875 7.625 -13.6875 7.625 -16.6875 6.625 C-13.0575 5.635 -9.4275 4.645 -5.6875 3.625 C-5.6875 2.965 -5.6875 2.305 -5.6875 1.625 C-2.6875 -0.375 -2.6875 -0.375 0 0 Z " fill="#1D9690" transform="translate(300.6875,633.375)"/>
<path d="M0 0 C2.31 0.33 4.62 0.66 7 1 C5.79157144 5.43090471 4.48331435 7.98112756 1 11 C2.875 6.25 2.875 6.25 4 4 C3.34 4 2.68 4 2 4 C2 3.01 2 2.02 2 1 C1.34 0.67 0.68 0.34 0 0 Z " fill="#0E1C33" transform="translate(1194,537)"/>
<path d="M0 0 C1 2 1 2 0.0625 5.125 C-0.288125 6.07375 -0.63875 7.0225 -1 8 C-1.66 8 -2.32 8 -3 8 C-3.433125 9.4540625 -3.433125 9.4540625 -3.875 10.9375 C-5 14 -5 14 -7 15 C-5.45454854 9.52067211 -2.84456788 4.88570819 0 0 Z " fill="#111E37" transform="translate(1022,468)"/>
<path d="M0 0 C0.33 0.99 0.66 1.98 1 3 C0.01 3.33 -0.98 3.66 -2 4 C-2.28875 4.639375 -2.5775 5.27875 -2.875 5.9375 C-4.39098648 8.71680854 -6.05867273 9.07115981 -9 10 C-8.06409496 8.8944811 -7.12620142 7.79064547 -6.1875 6.6875 C-5.66542969 6.07261719 -5.14335937 5.45773437 -4.60546875 4.82421875 C-3.12827531 3.14575321 -1.59960869 1.56117966 0 0 Z " fill="#0D948D" transform="translate(304,485)"/>
<path d="M0 0 C0.33 0.66 0.66 1.32 1 2 C-0.89501612 5.69029454 -3.36021174 8.81404865 -6 12 C-5.43958106 7.23643901 -3.41302403 3.41302403 0 0 Z " fill="#0E1C34" transform="translate(813,515)"/>
<path d="M0 0 C1.61949011 2.57213134 2.04408751 3.67669159 1.625 6.75 C1.41875 7.4925 1.2125 8.235 1 9 C0.34 9 -0.32 9 -1 9 C-1.125 2.25 -1.125 2.25 0 0 Z " fill="#293950" transform="translate(1202,493)"/>
<path d="M0 0 C-0.33 0.99 -0.66 1.98 -1 3 C-3.64 3 -6.28 3 -9 3 C-5.92807025 0.26939578 -4.09590633 -0.34132553 0 0 Z " fill="#1A9991" transform="translate(280,338)"/>
</svg>
