<?xml version="1.0" encoding="UTF-8"?>
<!DOCTYPE svg PUBLIC "-//W3C//DTD SVG 1.1//EN" "http://www.w3.org/Graphics/SVG/1.1/DTD/svg11.dtd">
<svg xmlns="http://www.w3.org/2000/svg" version="1.1" width="372px" height="402px" style="shape-rendering:geometricPrecision; text-rendering:geometricPrecision; image-rendering:optimizeQuality; fill-rule:evenodd; clip-rule:evenodd" xmlns:xlink="http://www.w3.org/1999/xlink">
<g><path style="opacity:1" fill="#fdfdfd" d="M -0.5,-0.5 C 123.5,-0.5 247.5,-0.5 371.5,-0.5C 371.5,133.5 371.5,267.5 371.5,401.5C 247.5,401.5 123.5,401.5 -0.5,401.5C -0.5,267.5 -0.5,133.5 -0.5,-0.5 Z"/></g>
<g><path style="opacity:1" fill="#1ea39e" d="M 32.5,169.5 C 32.3398,171.199 32.5065,172.866 33,174.5C 37.1449,163.847 43.4782,154.847 52,147.5C 52.6838,146.216 52.5171,145.049 51.5,144C 53.2077,142.49 54.8744,140.99 56.5,139.5C 56.1445,138.478 55.4778,137.811 54.5,137.5C 91.9638,96.8694 130.964,57.7027 171.5,20C 192.317,6.18441 213.984,4.85108 236.5,16C 250.15,24.649 260.65,36.149 268,50.5C 272.71,71.6435 268.044,90.3102 254,106.5C 221.361,140.139 188.361,173.472 155,206.5C 147.018,215.797 141.685,226.464 139,238.5C 138.333,253.167 138.333,267.833 139,282.5C 177.192,242.642 215.692,203.142 254.5,164C 272.304,149.458 290.638,148.791 309.5,162C 334.581,182.549 344.748,209.049 340,241.5C 337.478,260.874 329.811,277.874 317,292.5C 292.195,318.305 267.028,343.805 241.5,369C 210.759,395.642 177.759,398.642 142.5,378C 136.877,374.045 131.543,369.712 126.5,365C 101.028,338.528 75.195,312.361 49,286.5C 20.8613,250.65 15.3613,211.65 32.5,169.5 Z"/></g>
<g><path style="opacity:1" fill="#259893" d="M 54.5,137.5 C 55.4778,137.811 56.1445,138.478 56.5,139.5C 54.8744,140.99 53.2077,142.49 51.5,144C 52.5171,145.049 52.6838,146.216 52,147.5C 43.4782,154.847 37.1449,163.847 33,174.5C 32.5065,172.866 32.3398,171.199 32.5,169.5C 37.8609,157.434 45.1942,146.767 54.5,137.5 Z"/></g>
</svg>
